<svg id="Capa_1" enable-background="new 0 0 512 512" height="512" viewBox="0 0 512 512" width="512" xmlns="http://www.w3.org/2000/svg"><g><g><g><path d="m371.695 454.259c-19.719-45.223-64.605-75.91-115.694-75.91-.001 0-.001 0-.001 0-22.892 0-44.457 6.162-63.074 16.958v109.193h63.074 126.15c0-17.849-3.739-34.838-10.455-50.241z" fill="#676fb2"/><path d="m192.925 395.307c-23.164 13.427-41.756 34.038-52.62 58.954-6.716 15.403-10.455 32.391-10.455 50.239h63.074c3.239-19.838 10.389-38.393 20.669-54.823z" fill="#4c5699"/></g><g><path d="m168.907 348.509c-22.812 22.812-22.812 59.796 0 82.608l28.428 30.223c15.221 16.182 36.45 25.358 58.665 25.358v-138.189z" fill="#4c5699"/><path d="m343.076 348.509h-87.075v82.911c-11.994 15.843-12.76 38.278 0 55.277 22.224 0 43.461-9.183 58.683-25.376l28.392-30.204c22.811-22.812 22.811-59.797 0-82.608z" fill="#676fb2"/></g><path d="m256 362.879-42.412 22.809c7.447 19.531 22.344 35.001 42.412 45.732 20.067-10.73 34.943-26.205 42.39-45.735z" fill="#ffbd86"/><g fill="#ffbd86"><path d="m67.193 240.505c0 20.763 16.832 37.594 37.594 37.594s37.594-16.832 37.594-37.594c0-19.386-14.673-35.316-33.518-37.348-22.606-2.437-41.67 15.271-41.67 37.348z"/><path d="m402.575 203.157c-18.575 2.285-32.957 18.156-32.957 37.348 0 20.763 16.832 37.594 37.594 37.594s37.594-16.832 37.594-37.594c.001-22.655-19.897-40.095-42.231-37.348z"/></g><g><path d="m306.212 133.587h-100.423l-50.787 53.762-.057 103.933c-.03 54.033 43.826 98.361 98.307 98.361h27.81c71.652-11.976 126.151-74.219 126.151-149.138z" fill="#fed2a4"/><path d="m154.913 240.505c0-6.386 1.166-18.857 1.166-18.857h-33.479l-17.813 18.857c0 83.511 67.701 151.212 151.212 151.212 8.54 0 16.91-.713 25.063-2.073-71.581-11.943-126.149-74.167-126.149-149.139z" fill="#ffbd86"/></g><g><path d="m104.788 240.505h10.71c15.846-.016 30.619-7.071 40.582-18.856 2.68-3.171 5.012-6.684 6.924-10.494v-.001c1.315-2.621 2.491-5.301 3.542-8.025l-57.682.028c-2.666 12.727-4.076 25.293-4.076 37.348z" fill="#ce857a"/><path d="m402.575 203.157-57.12-.028c1.051 2.724 2.228 5.404 3.542 8.025v.001c9.017 17.975 27.396 29.33 47.506 29.35h10.71c0-12.876-1.609-25.413-4.638-37.348z" fill="#d6948c"/></g></g><g><g><path d="m387.97 116.783h-.057c-18.018-44.341-50.14-84.794-95.065-101.89-8.318 4.663-78.065 43.765-86.607 48.553v118.575c62.864 10.257 129.484.887 185.48-28.124 0-12.756-1.556-25.176-3.751-37.114z" fill="#676fb2"/><path d="m292.848 14.892c-12.619-4.801-22.908-7.392-36.834-7.392-47.927 0-103.012 38.052-131.956 109.283-4.569 11.245-3.751 24.358-3.751 37.114 26.743 13.855 55.91 23.225 85.933 28.124.218-15.777 2.192-31.151 4.916-45.96 11.156-60.666 39.321-90.973 81.692-121.169z" fill="#4c5699"/></g><g><path d="m187.76 225.87c22.348 3.619 45.196 5.467 68.254 5.467 45.487 0 90.163-7.178 131.786-21.002 5.588-1.856 10.381-4.427 14.775-7.178 29.236-18.308 18.935-75.475-14.605-86.375-41.731 21.136-85.964 31.147-131.956 31.147-15.643 0-31.085-1.161-46.297-3.523l-88.284 24.468z" fill="#8288cb"/><path d="m209.717 144.407c-29.489-4.578-58.115-13.674-85.658-27.625-33.308 10.824-44.106 67.986-15.195 86.375 4.482 2.85 9.62 5.27 15.364 7.178 20.525 6.817 41.792 12.014 63.533 15.535-28.157-24.128-21.331-67.396 21.956-81.463z" fill="#676fb2"/></g></g><g><path d="m221.895 225.984c-24.093-14.483-79.397-12.95-97.351 8.512-14.777 17.662-5.536 61.865 12.457 73.767 16.975 11.229 54.915 9.92 71.934.71h.001c12.242-6.624 22.892-25.539 26.904-42.467 5.113-21.572 35.196-21.534 40.296-.005l13.948-40.518c-21.766-9.188-46.424-9.188-68.189.001z" fill="#4c5699"/><path d="m290.084 225.984c24.135-14.509 79.424-12.917 97.352 8.513 14.822 17.716 5.454 61.918-12.458 73.767-16.973 11.228-54.913 9.921-71.934.71-12.221-6.613-22.891-25.522-26.907-42.472-3.293-13.899 1.705-33.158 13.947-40.518z" fill="#676fb2"/></g><g><path d="m247.362 299.647c2.706 0 9.894 0 13.832 1.61 3.825 1.566 8.21-.262 9.781-4.103 1.568-3.834-.269-8.213-4.103-9.781-6.667-2.727-15.667-2.727-19.509-2.727-4.142 0-7.5 3.358-7.5 7.5s3.357 7.501 7.499 7.501z"/><path d="m408.184 285.575c24.417-.52 44.123-20.53 44.123-45.07 0-20.036-13.319-38.024-33.193-43.494 17.488-27.005 5.649-73.144-25.534-86.137-32.309-76.555-92.11-110.874-137.566-110.874-25.673 0-53.025 10.291-77.019 28.976-3.268 2.545-3.854 7.257-1.31 10.525 2.545 3.268 7.257 3.854 10.526 1.31 21.373-16.644 45.453-25.811 67.803-25.811 39.802 0 92.316 30.43 122.232 98.194-77.067 36.636-167.436 36.631-244.501-.018 8.867-20.071 20.138-37.811 33.579-52.792 2.766-3.083 2.509-7.825-.574-10.591-3.083-2.767-7.825-2.509-10.591.574-15.343 17.102-28.034 37.458-37.769 60.532-31.398 13.149-42.967 59.908-25.906 86.259-19.861 5.61-32.79 23.654-32.79 43.348 0 24.54 19.706 44.549 44.123 45.07 8.638 29.116 25.417 54.762 47.694 74.288-9.791 19.227-9.349 42.078.508 60.813-7.563 9.355-13.807 19.621-18.588 30.587-7.352 16.862-11.08 34.773-11.08 53.237 0 4.142 3.358 7.5 7.5 7.5h252.3c4.143 0 7.5-3.358 7.5-7.5 0-12.042-1.619-24-4.812-35.545-1.104-3.992-5.232-6.336-9.228-5.229-3.992 1.104-6.334 5.235-5.229 9.228 2.169 7.842 3.519 15.902 4.032 24.047h-236.831c.856-13.738 4.074-27.076 9.597-39.742 3.656-8.385 8.276-16.312 13.782-23.662.888 1 31.857 34.408 38.204 39.774 6.132 5.186 12.979 9.52 20.352 12.881 3.766 1.719 8.217.058 9.936-3.712 1.719-3.769.057-8.217-3.712-9.936-6.123-2.792-11.805-6.388-16.89-10.688-6.578-5.562-29.492-30.955-34.64-36.103-14.89-14.89-18.845-37.513-10.647-56.37 13.403 9.635 28.361 17.234 44.42 22.342 7.742 17.9 21.637 33.005 40.517 44.029v20.633c0 4.142 3.358 7.5 7.5 7.5s7.5-3.358 7.5-7.5v-20.633c18.858-11.015 32.744-26.117 40.489-44.021 16.064-5.107 31.027-12.705 44.433-22.341 7.576 17.436 5.612 38.886-10.813 56.527l-28.393 30.204c-6.507 6.922-14.228 12.446-22.95 16.419-3.77 1.717-5.434 6.165-3.716 9.934 1.716 3.767 6.161 5.435 9.934 3.716 10.506-4.785 19.812-11.446 27.662-19.796.523-.557 30.378-32.302 30.885-32.874 3.187 4.259 6.089 8.721 8.666 13.341 2.02 3.62 6.591 4.912 10.204 2.895 3.617-2.018 4.913-6.587 2.896-10.204-3.709-6.646-8.017-12.997-12.826-18.951 9.849-18.729 10.289-41.57.506-60.79 22.282-19.528 39.065-45.178 47.705-74.299zm-293.783-71.005c4.309 1.907 7.96 3.132 15.991 5.6-10.165 5.986-15.364 13.194-18.088 21.68-.084-9.156.668-18.161 2.097-27.28zm13.364 28.81c10.076-21.6 67.003-24.95 90.266-10.967 2.053 1.234 4.573 1.413 6.781.481 19.814-8.366 42.542-8.366 62.355 0 2.208.932 4.728.753 6.781-.481 15.077-9.063 46.231-11.094 68.036-4.433 11.315 3.457 19.213 8.928 22.235 15.407 8.229 17.633-1.089 50.493-13.379 58.622-14.488 9.585-49.582 8.294-64.228.37-9.331-5.049-19.295-21.215-23.178-37.604-6.928-29.246-47.96-29.24-54.892.004-3.884 16.388-13.848 32.552-23.176 37.6-14.646 7.925-49.74 9.215-64.227-.37-13.379-8.85-21.003-42.274-13.374-58.629zm253.817-23.195c8.731-2.681 11.696-3.705 15.791-5.624 1.641 9.032 2.412 18.039 2.322 27.343-2.667-8.341-7.748-15.591-18.113-21.719zm55.725 20.32c0 14.997-11.027 27.464-25.397 29.725 3.738-19.644 3.731-39.86.024-59.463 14.57 2.351 25.373 14.913 25.373 29.738zm-313.663-115.547c40.59 19.97 86.238 30.523 132.24 30.545h.142c46.036 0 91.725-10.553 132.359-30.545 25.438 11.181 33.024 57.556 10.21 71.843-6.366 3.987-12.447 7.324-41.231 14.569-23.161-4.708-50.645-2.237-67.779 6.342-21.545-8.112-45.643-8.114-67.188-.001-17.54-8.807-44.974-10.947-67.724-6.337-20.737-5.219-33.651-9.373-41.784-14.545-22.457-14.283-14.603-60.712 10.755-71.871zm-48.951 115.547c0-14.678 10.677-27.326 25.118-29.676-3.277 20.001-3.538 39.331.28 59.401-14.371-2.261-25.398-14.728-25.398-29.725zm58.159 74.006c.004.003.008.006.011.008 19.425 12.85 60.717 11.292 79.642 1.051 15.301-8.28 26.605-30.34 30.633-47.333 1.817-7.665 7.827-10.396 12.846-10.396 5.024 0 11.04 2.729 12.854 10.39 4.026 16.995 15.331 39.058 30.636 47.339 18.93 10.243 60.22 11.796 79.642-1.051.017-.011.032-.024.049-.035-25.172 41.75-70.96 69.733-123.166 69.733-52.193 0-97.972-27.971-123.147-69.706zm123.148 108.316c-12-7.021-21.584-15.892-28.362-26.152 9.205 1.667 18.682 2.542 28.361 2.542 9.671 0 19.142-.873 28.34-2.538-6.776 10.263-16.353 19.133-28.339 26.148z"/></g></g></svg>