<svg id="Capa_1" enable-background="new 0 0 512 512" height="512" viewBox="0 0 512 512" width="512" xmlns="http://www.w3.org/2000/svg"><g id="XMLID_1898_"><g id="XMLID_2651_"><path id="XMLID_646_" d="m151.616 475v-160.424l-45.116 7.424-19.5 22.273h-44l-33 58.728v71.999z" fill="#ff9171"/></g><g id="XMLID_2649_"><path id="XMLID_345_" d="m470.313 418.334-6.894-9.687 1.998-.147v-54.5l-8.667-21.333v-67.333l-10.667-16v-43.334h-41.333v23.333l-16 20.667v60l-39.938 21.5v-89.312l-15.812-15.813-6.667-33.709h-47.333v99.334l-23.593 22.593-16.407-15.407v-133.853c-5.207-5.207-8.126-8.126-13.333-13.333h-40c-5.207 5.207-8.126 8.126-13.333 13.333v61.042l-20.718 42.751v117.29h-23.616l-11.333 35.584-25.333 11.333-17.667 41.667h77.949 350.384v-56.666z" fill="#ffad95"/></g><g id="XMLID_1900_"><circle id="XMLID_341_" cx="60.5" cy="87.5" fill="#ffcd69" r="50.5"/></g><g id="XMLID_647_"><path id="XMLID_650_" d="m502 408.334h-26.583v-54.334c0-1.29-.25-2.568-.735-3.764l-7.932-19.523v-65.38c0-1.975-.584-3.904-1.68-5.547l-8.987-13.481v-40.305c0-5.522-4.478-10-10-10h-41.333c-5.522 0-10 4.478-10 10v19.914l-13.907 17.964c-1.356 1.753-2.093 3.906-2.093 6.122v54.026l-19.938 10.733v-72.572c0-2.652-1.054-5.196-2.929-7.071l-13.663-13.662-6.078-30.728c-.926-4.684-5.035-8.06-9.81-8.06h-47.332c-5.522 0-10 4.478-10 10v95.063l-13.661 13.081-6.339-5.951v-129.526c0-2.652-1.054-5.195-2.929-7.071l-13.333-13.333c-1.875-1.875-4.419-2.929-7.071-2.929h-40c-2.652 0-5.196 1.054-7.071 2.929l-13.333 13.333c-1.875 1.876-2.929 4.419-2.929 7.071v58.747l-19.717 40.686c-.659 1.359-1.001 2.851-1.001 4.361v36.959l-36.74 6.046c-2.287.376-4.373 1.536-5.9 3.28l-16.512 18.86h-39.464c-3.614 0-6.947 1.95-8.718 5.102l-33 58.728c-.841 1.496-1.282 3.183-1.282 4.899v71.999c0 5.522 4.477 10 10 10h201c5.523 0 10-4.478 10-10s-4.477-10-10-10h-122.232l10.237-24.145 21.745-9.728c2.6-1.163 4.581-3.379 5.445-6.093l9.115-28.618h54.907l15.42 30.138c1.71 3.343 5.148 5.445 8.902 5.445h37.127c5.523 0 10-4.478 10-10s-4.477-10-10-10h-31.011l-15.42-30.138c-1.71-3.343-5.148-5.445-8.902-5.445h-34.718v-76.416h29.385c5.523 0 10-4.478 10-10s-4.477-10-10-10h-29.384v-8.578l19.717-40.685c.659-1.359 1.001-2.851 1.001-4.361v-56.9l7.475-7.476h31.716l7.476 7.476v129.711c0 2.762 1.142 5.399 3.155 7.29l16.407 15.406c3.874 3.638 9.921 3.609 13.762-.067l23.593-22.593c1.97-1.887 3.084-4.495 3.084-7.223v-89.333h29.117l5.073 25.649c.384 1.943 1.338 3.729 2.738 5.131l12.884 12.883v101.17c0 5.522 4.478 10 10 10s10-4.478 10-10v-10.027l34.678-18.668c3.239-1.743 5.26-5.126 5.26-8.805v-56.581l13.907-17.964c1.356-1.753 2.093-3.906 2.093-6.122v-13.333h21.333v33.333c0 1.975.584 3.904 1.68 5.547l8.987 13.48v64.307c0 1.29.25 2.568.735 3.764l7.932 19.523v37.047h-53.299c-2.652 0-5.195 1.054-7.071 2.929l-12.404 12.404h-50.619c-5.522 0-10 4.478-10 10s4.478 10 10 10h54.761c2.652 0 5.195-1.054 7.071-2.929l12.404-12.404h47.179l8.997 11.496c1.896 2.422 4.8 3.837 7.875 3.837h21.687v36.666h-191c-5.522 0-10 4.478-10 10s4.478 10 10 10h201c5.522 0 10-4.478 10-10v-56.666c0-5.522-4.478-10-10-10zm-414.75 15.871c-2.307 1.031-4.137 2.898-5.123 5.225l-15.082 35.57h-47.045v-32.334h17c5.523 0 10-4.478 10-10s-4.477-10-10-10h-17v-7.048l28.852-51.345h38.148c2.883 0 5.625-1.244 7.524-3.413l17.138-19.575 29.954-4.93v50.062h-60.808c-5.523 0-10 4.478-10 10s4.477 10 10 10h33.512l-5.823 18.283z"/><path id="XMLID_651_" d="m212 328h-13.014c-5.523 0-10 4.478-10 10s4.477 10 10 10h13.014c5.523 0 10-4.478 10-10s-4.477-10-10-10z"/><path id="XMLID_652_" d="m319 373c0-5.522-4.478-10-10-10h-39c-5.522 0-10 4.478-10 10s4.478 10 10 10h39c5.522 0 10-4.478 10-10z"/><path id="XMLID_653_" d="m256 465c-2.63 0-5.21 1.069-7.07 2.93-1.86 1.86-2.93 4.44-2.93 7.07s1.07 5.21 2.93 7.069c1.86 1.86 4.44 2.931 7.07 2.931s5.21-1.07 7.069-2.931c1.861-1.859 2.931-4.439 2.931-7.069s-1.07-5.21-2.931-7.07c-1.859-1.861-4.439-2.93-7.069-2.93z"/><path id="XMLID_656_" d="m60.5 148c33.36 0 60.5-27.141 60.5-60.5s-27.14-60.5-60.5-60.5-60.5 27.141-60.5 60.5 27.14 60.5 60.5 60.5zm0-101c22.332 0 40.5 18.168 40.5 40.5s-18.168 40.5-40.5 40.5-40.5-18.168-40.5-40.5 18.168-40.5 40.5-40.5z"/></g></g></svg>