<svg id="Capa_1" enable-background="new 0 0 512.17 512.17" height="512" viewBox="0 0 512.17 512.17" width="512" xmlns="http://www.w3.org/2000/svg"><g id="XMLID_1595_"><g id="XMLID_2483_"><path id="XMLID_519_" d="m356.062 502.17c61.019 0 110.533-49.466 110.533-110.485v-38.131c0-17.982-14.716-33.04-32.694-32.696-17.422.333-31.443 14.56-31.443 32.062v38.765c0 25.598-20.798 46.349-46.396 46.349z" fill="#cbe558"/></g><g id="XMLID_2492_"><path id="XMLID_338_" d="m156.062 482.798c-61.02 0-110.486-49.466-110.486-110.486v-12.505c0-17.982 14.716-33.04 32.694-32.696 17.422.333 31.443 14.56 31.443 32.062v13.139c0 25.598 20.751 46.349 46.349 46.349z" fill="#cbe558"/></g><g id="XMLID_2727_"><path id="XMLID_310_" d="m356.062 502.062h-200v-353.251c0-41.25 33.44-74.69 74.69-74.69h50.62c41.25 0 74.69 33.44 74.69 74.69z" fill="#cbe558"/></g><g id="XMLID_2726_"><path id="XMLID_293_" d="m329.134 265.036c-15.204 0-29.75-2.807-43.154-7.928-19.268-7.362-40.569-7.362-59.838 0-13.403 5.121-27.95 7.928-43.154 7.928-9.123 0-18.004-1.023-26.545-2.945-5.848-1.316-11.306 3.378-10.932 9.361 4.61 73.751 48.27 136.912 110.55 169.051 62.28-32.139 105.94-95.3 110.55-169.051.374-5.982-5.085-10.676-10.932-9.361-8.541 1.922-17.422 2.945-26.545 2.945z" fill="#ff7b79"/></g><g id="XMLID_2682_"><g id="XMLID_2684_"><path id="XMLID_292_" d="m321.257 26.156c-8.188-18.056-32.324-21.804-45.538-7.024-6.065 6.784-12.706 10.848-19.668 10.848s-13.603-4.063-19.669-10.848c-13.214-14.78-37.35-11.032-45.538 7.024-8.497 18.738-15.653 41.757-21.083 64.845h172.577c-5.429-23.088-12.585-46.107-21.081-64.845z" fill="#d1a184"/></g><g id="XMLID_2683_"><path id="XMLID_284_" d="m350.895 136.836c-1.974-14.43-4.866-30.148-8.556-45.835h-172.577c-3.689 15.687-6.582 31.405-8.556 45.835z" fill="#c68a65"/></g></g><g id="XMLID_2679_"><path id="XMLID_283_" d="m384.177 77.49c-21.603 0-42.625 6.992-59.925 19.931l-68.063 50.906h127.988c19.561 0 35.418-15.857 35.418-35.418 0-19.562-15.857-35.419-35.418-35.419z" fill="#d1a184"/></g><g id="XMLID_2675_"><path id="XMLID_275_" d="m128.2 77.49c21.603 0 42.625 6.992 59.925 19.931l68.063 50.906h-127.988c-19.561 0-35.418-15.857-35.418-35.418 0-19.562 15.857-35.419 35.418-35.419z" fill="#d1a184"/></g><g id="XMLID_523_"><path id="XMLID_574_" d="m463.684 322.888c-8.126-7.971-18.759-12.234-29.975-12.028-22.746.435-41.252 19.303-41.252 42.061v38.764c0 16.579-11.176 30.592-26.396 34.943v-100.36c5.808-17.47 9.374-35.69 10.53-54.192.377-6.035-2.045-11.745-6.645-15.667-1.206-1.028-2.512-1.884-3.886-2.57v-95.512h18.115c25.044 0 45.418-20.374 45.418-45.418s-20.372-45.419-45.416-45.419c-12.177 0-24.297 2.088-35.779 6.035-5.125-19.08-11.173-36.368-18.034-51.499-5.255-11.588-15.916-19.658-28.521-21.587-12.567-1.929-25.126 2.572-33.58 12.028-3.064 3.427-7.67 7.513-12.213 7.513s-9.149-4.086-12.214-7.514c-8.454-9.455-21.01-13.953-33.578-12.027-12.604 1.929-23.267 9.998-28.522 21.587-6.852 15.111-12.891 32.368-18.01 51.41-11.407-3.891-23.439-5.946-35.526-5.946-25.044 0-45.418 20.375-45.418 45.419s20.374 45.418 45.418 45.418h17.861v95.512c-1.374.686-2.679 1.542-3.886 2.57-4.6 3.922-7.021 9.632-6.645 15.667 1.156 18.502 4.722 36.724 10.53 54.193v80.982c-15.194-4.355-26.349-18.364-26.349-34.938v-13.139c0-22.758-18.506-41.626-41.252-42.061-11.161-.2-21.849 4.058-29.975 12.028-8.204 8.05-12.91 19.227-12.91 30.665v12.506c0 63.068 48.711 114.967 110.485 120.067v9.682c0 5.522 4.478 10 10 10s10-4.478 10-10v-132.478c1.538 2.54 3.123 5.053 4.769 7.531 10.383 15.636 22.779 29.808 36.759 42.181v82.768c0 5.522 4.478 10 10 10s10-4.478 10-10v-67.053c7.631 5.296 15.607 10.108 23.887 14.381 1.438.742 3.012 1.113 4.586 1.113 1.573 0 3.147-.371 4.586-1.113 8.28-4.273 16.255-9.086 23.887-14.382v67.054c0 5.522 4.478 10 10 10s10-4.478 10-10v-82.769c13.98-12.372 26.375-26.544 36.759-42.18 1.646-2.478 3.231-4.991 4.769-7.531v132.479.108c0 5.522 4.478 10 10 10 15.749 0 31.059-2.984 45.502-8.871 5.114-2.085 7.57-7.921 5.486-13.035-2.085-5.114-7.92-7.569-13.035-5.486-8.959 3.652-18.326 5.964-27.953 6.906v-44.537c26.342-4.73 46.396-27.802 46.396-55.463v-38.764c0-11.938 9.705-21.836 21.635-22.064 5.768-.124 11.325 2.13 15.585 6.309 4.396 4.313 6.917 10.286 6.917 16.389v38.131c0 12.309-2.196 24.325-6.528 35.715-1.964 5.162.63 10.938 5.792 12.901 5.16 1.964 10.938-.63 12.901-5.792 5.199-13.669 7.835-28.077 7.835-42.824v-38.131c0-11.439-4.706-22.616-12.91-30.666zm-408.108 49.425v-12.506c0-6.103 2.521-12.076 6.917-16.389 4.159-4.08 9.534-6.313 15.176-6.313.136 0 .273.001.409.004 11.93.229 21.635 10.126 21.635 22.064v13.139c0 27.659 20.031 50.728 46.349 55.46v44.531c-50.73-5.034-90.486-47.957-90.486-99.99zm290.486-118.584c-5.594.862-11.261 1.308-16.928 1.308-8.35 0-16.577-.921-24.6-2.739v-93.971h41.527v95.402zm-89.873-117.89-46.581-34.839h93.162zm-28.6 22.488h56.945v87.702c-18.542-5.911-38.404-5.911-56.945 0zm182.006-45.418c0 14.016-11.402 25.418-25.418 25.418h-97.922l43.986-32.898c15.468-11.567 34.622-17.938 53.936-17.938 14.016-.001 25.418 11.402 25.418 25.418zm-209.644-82.623c2.489-5.488 7.349-9.161 13.333-10.077 5.95-.907 11.653 1.125 15.643 5.588 8.414 9.411 17.54 14.184 27.124 14.184s18.709-4.771 27.123-14.183c3.989-4.464 9.694-6.497 15.645-5.589 5.983.916 10.843 4.589 13.331 10.077 6.685 14.744 12.574 31.773 17.546 50.715h-147.29c4.969-18.939 10.859-35.968 17.545-50.715zm-97.168 82.623c0-14.016 11.402-25.419 25.418-25.419 19.313 0 38.468 6.371 53.936 17.938l43.986 32.898h-97.923c-14.015.001-25.417-11.402-25.417-25.417zm104.806 45.418v93.971c-8.023 1.818-16.25 2.739-24.6 2.739-5.667 0-11.333-.446-16.928-1.308v-95.402zm48.473 270.844c-57.672-31.763-95.924-91.383-100.482-157.032 8.985 1.923 18.199 2.897 27.41 2.897 16.089 0 31.809-2.89 46.723-8.587 16.992-6.494 35.707-6.494 52.699 0 14.914 5.697 30.634 8.587 46.723 8.587 9.211 0 18.425-.975 27.41-2.897-4.56 65.65-42.812 125.27-100.483 157.032z"/><path id="XMLID_620_" d="m435.165 458.855c-2.63 0-5.2 1.07-7.07 2.931-1.86 1.859-2.93 4.439-2.93 7.069 0 2.641 1.069 5.21 2.93 7.07s4.44 2.93 7.07 2.93 5.21-1.069 7.069-2.93c1.87-1.86 2.931-4.44 2.931-7.07s-1.061-5.2-2.931-7.069c-1.859-1.861-4.439-2.931-7.069-2.931z"/></g></g></svg>