<svg id="Capa_1" enable-background="new 0 0 511.999 511.999" height="512" viewBox="0 0 511.999 511.999" width="512" xmlns="http://www.w3.org/2000/svg"><g id="XMLID_2435_"><g id="XMLID_2614_"><path id="XMLID_2619_" d="m65.964 363.497c-33.399 11.012-55.964 42.211-55.964 77.379v61.123h64v-141.151z" fill="#e2e9ee"/><path id="XMLID_2618_" d="m446.035 363.497-8.036-2.65v141.151h64v-61.123c0-35.167-22.565-66.366-55.964-77.378z" fill="#e2e9ee"/><path id="XMLID_2617_" d="m306.033 317.338h-100.067l-131.966 43.51v141.151h363.999v-141.151z" fill="#ff9171"/><g fill="#c68a65"><path id="XMLID_2616_" d="m74 461.999h120v40h-120z"/><path id="XMLID_2615_" d="m317.999 461.999h120v40h-120z" transform="matrix(-1 0 0 -1 755.998 963.998)"/></g></g><path id="XMLID_2613_" d="m194 360.999h123.999v141h-123.999z" fill="#e2e9ee"/><path id="XMLID_2610_" d="m204.89 260.81c0 15.263-5.254 29.29-14.034 40.403l65.144 51.111 65.143-51.112c-8.779-11.114-14.033-25.14-14.033-40.402z" fill="#efb789"/><g id="XMLID_2608_"><path id="XMLID_2609_" d="m338.85 140.324v52.817c0 45.757-37.093 82.85-82.85 82.85-45.757 0-82.85-37.093-82.85-82.85v-52.817z" fill="#e5ae8c"/></g><path id="XMLID_2604_" d="m150.81 335.157 65.357 65.394 39.833-39.632-62-58.701z" fill="#fff"/><path id="XMLID_2603_" d="m361.284 335.062-65.452 65.489-39.832-39.632 61.999-58.701z" fill="#fff"/><path id="XMLID_2602_" d="m315.413 218.33c-12.362 0-24.189-2.282-35.087-6.446-15.684-5.993-32.97-5.993-48.654 0-10.898 4.164-22.725 6.446-35.087 6.446-6.579 0-13.002-.654-19.216-1.893-6.009-1.197-11.549 3.622-11.072 9.73 4.605 58.84 39.803 109.082 89.703 134.832 49.899-25.75 85.098-75.992 89.702-134.831.478-6.108-5.063-10.928-11.072-9.73-6.214 1.238-12.638 1.892-19.217 1.892z" fill="#ff7b79"/><g id="XMLID_2397_"><path id="XMLID_2400_" d="m321.195 26.154c-8.188-18.056-32.325-21.804-45.539-7.024-6.065 6.784-12.706 10.848-19.668 10.848s-13.603-4.063-19.669-10.848c-13.214-14.78-37.35-11.032-45.538 7.024-8.497 18.738-15.653 41.757-21.083 64.845h172.577c-5.428-23.088-12.584-46.107-21.08-64.845z" fill="#d1a184"/><path id="XMLID_2399_" d="m350.833 136.834c-1.974-14.43-4.866-30.148-8.556-45.835h-172.577c-3.689 15.687-6.582 31.405-8.556 45.835z" fill="#c68a65"/></g><path id="XMLID_2394_" d="m384.115 77.488c-21.603 0-42.625 6.992-59.925 19.931l-68.063 50.906h127.988c19.561 0 35.418-15.857 35.418-35.418 0-19.562-15.857-35.419-35.418-35.419z" fill="#d1a184"/><path id="XMLID_2393_" d="m128.138 77.488c21.603 0 42.625 6.992 59.925 19.931l68.063 50.906h-127.988c-19.561 0-35.418-15.857-35.418-35.418 0-19.562 15.857-35.419 35.418-35.419z" fill="#d1a184"/><g id="XMLID_421_"><path id="XMLID_747_" d="m484.411 375.403c-3.952-3.859-10.283-3.78-14.141.169-3.858 3.952-3.782 10.283.169 14.142 13.702 13.377 21.56 32.025 21.56 51.162v61.123c0 5.522 4.477 10 10 10s10-4.478 10-10v-61.123c0-24.491-10.056-48.356-27.588-65.473z"/><path id="XMLID_802_" d="m437.999 395.848c-5.523 0-10 4.478-10 10v46.151h-100v-69.486l35.633-35.654 28.49 9.394c1.04.343 2.095.506 3.133.506 4.199 0 8.109-2.666 9.496-6.871 1.729-5.245-1.121-10.899-6.366-12.629l-31.237-10.299-34.366-26.077c12.978-22.582 20.852-47.895 22.89-73.935.471-6.032-1.856-11.798-6.386-15.82-.608-.54-1.244-1.033-1.901-1.486.973-5.424 1.466-10.944 1.466-16.499v-34.817h35.265c25.043 0 45.418-20.374 45.418-45.418s-20.375-45.418-45.418-45.418c-12.177 0-24.297 2.088-35.779 6.035-5.126-19.083-11.174-36.372-18.034-51.499-5.255-11.588-15.917-19.658-28.521-21.588-12.574-1.919-25.126 2.572-33.58 12.028-3.064 3.427-7.67 7.513-12.213 7.513s-9.149-4.086-12.213-7.513c-8.454-9.456-21.007-13.949-33.58-12.028-12.604 1.93-23.266 10-28.52 21.588-6.85 15.106-12.89 32.363-18.01 51.41-11.406-3.891-23.439-5.946-35.526-5.946-25.043 0-45.418 20.374-45.418 45.418s20.375 45.418 45.418 45.418h35.012v34.817c0 5.551.501 11.07 1.474 16.494-.66.454-1.299.95-1.91 1.492-4.53 4.022-6.857 9.788-6.386 15.821 2.038 26.039 9.912 51.352 22.89 73.934l-34.366 26.077-82.021 27.039c-37.583 12.391-62.833 47.304-62.833 86.876v61.123c0 5.522 4.477 10 10 10s10-4.478 10-10v-61.123c0-29.095 17.472-54.962 44-65.981v127.104c0 5.522 4.477 10 10 10s10-4.478 10-10v-30h20v30c0 5.522 4.477 10 10 10s10-4.478 10-10v-30h20v30c0 5.522 4.477 10 10 10s10-4.478 10-10v-30h20v30c0 5.522 4.477 10 10 10s10-4.478 10-10v-99.474l5.093 5.096c1.953 1.953 4.513 2.931 7.073 2.931 2.551 0 5.103-.971 7.053-2.911l32.781-32.616 32.78 32.615c1.951 1.941 4.502 2.911 7.053 2.911 2.561 0 5.121-.978 7.073-2.931l5.093-5.096v99.474c0 5.522 4.477 10 10 10s10-4.478 10-10v-30h20v30c0 5.522 4.477 10 10 10s10-4.478 10-10v-30h20v30c0 5.522 4.477 10 10 10s10-4.478 10-10v-30h20v30c0 5.522 4.477 10 10 10s10-4.478 10-10v-96.151c0-5.522-4.477-9.999-10-9.999zm-28.466-282.942c0 14.016-11.402 25.418-25.418 25.418h-97.921l43.986-32.897c15.467-11.567 34.622-17.938 53.936-17.938 14.014-.001 25.417 11.402 25.417 25.417zm-153.407 22.931-46.581-34.838h93.161zm-56.236-105.553c2.489-5.488 7.348-9.161 13.331-10.077 5.953-.918 11.654 1.126 15.644 5.588 8.414 9.411 17.54 14.183 27.124 14.183s18.709-4.771 27.124-14.183c3.989-4.463 9.691-6.5 15.644-5.588 5.984.916 10.843 4.589 13.332 10.077 6.684 14.74 12.573 31.77 17.545 50.715h-147.29c4.971-18.945 10.86-35.973 17.546-50.715zm-97.17 82.622c0-14.016 11.402-25.418 25.418-25.418 19.314 0 38.469 6.371 53.936 17.938l43.986 32.897h-97.921c-14.016.001-25.419-11.401-25.419-25.417zm226.13 45.418v34.817c0 4.844-.485 9.647-1.423 14.351-3.976.544-7.997.838-12.013.838-10.863 0-21.467-1.947-31.518-5.788-17.989-6.871-37.803-6.872-55.792.001-10.05 3.84-20.654 5.787-31.518 5.787-4.019 0-8.041-.293-12.018-.839-.938-4.703-1.417-9.509-1.417-14.35v-34.817zm-132.265 70.006c13.313 0 26.318-2.391 38.656-7.104 13.386-5.115 28.131-5.115 41.516-.001 12.338 4.715 25.344 7.105 38.656 7.105 6.785 0 13.587-.64 20.234-1.903-4.373 51.353-34.653 98.034-79.648 123.22-44.995-25.186-75.275-71.868-79.647-123.22 6.647 1.263 13.449 1.903 20.233 1.903zm-12.585 223.669h-100v-83.919l64.367-21.222 35.633 35.655zm32.187-65.573-50.296-50.326 24.298-18.438c13.409 18.16 30.23 33.642 49.385 45.494zm79.626 0-23.387-23.27c19.155-11.852 35.976-27.334 49.385-45.494l24.298 18.438z"/><path id="XMLID_848_" d="m438 350.849c-2.63 0-5.21 1.07-7.07 2.93s-2.93 4.44-2.93 7.07 1.07 5.21 2.93 7.07c1.86 1.859 4.44 2.93 7.07 2.93s5.21-1.07 7.07-2.93 2.93-4.44 2.93-7.07-1.07-5.21-2.93-7.07c-1.861-1.86-4.441-2.93-7.07-2.93z"/></g></g></svg>