<svg id="Capa_1" enable-background="new 0 0 512.004 512.004" height="512" viewBox="0 0 512.004 512.004" width="512" xmlns="http://www.w3.org/2000/svg"><g id="XMLID_586_"><g id="XMLID_1637_"><path id="XMLID_27_" d="m279.587 238.991 113.069-64.18c23.213 18.692 36.711 46.891 36.711 76.694v7.776l36.421 76.198c3.98 8.328-2.09 17.958-11.32 17.958h-16.424v34.6c0 5.734-1.684 11.342-4.842 16.127-3.159 4.786-4.842 10.393-4.842 16.128v31.019c0 14.783-11.998 26.747-26.782 26.742-11.588-.004-23.062-1.804-34.027-5.296v.001l-12.042 29.243h-171.202z" fill="#dd9366"/></g><g id="XMLID_2314_"><path id="XMLID_1351_" d="m240.964 287.784c14.164-55.086 58.403-113.982 103.005-152.557 9.102-7.872 22.727-7.4 31.232 1.114l12.326 12.34c8.629 8.639 7.445 22.963-2.502 30.045-43.085 30.672-87.867 78.879-108.417 123.389z" fill="#ffcd69"/></g><g id="XMLID_2299_"><g id="XMLID_2309_"><path id="XMLID_26_" d="m338.728 138.396c-67.238-8.242-120.299-61.239-128.551-128.395 67.238 8.241 120.3 61.239 128.551 128.395z" fill="#fff"/></g><g id="XMLID_2308_"><path id="XMLID_1340_" d="m299.938 55.589-1.43 1.047c-24.863-1.864-43.506 16.756-41.64 41.589l-1.244 1.243c-24.505-23.009-41.125-54.293-45.447-89.467 35.311 4.328 66.707 21.004 89.761 45.588z" fill="#ff9171"/></g></g><g id="XMLID_2294_"><g id="XMLID_2298_"><path id="XMLID_25_" d="m293.094 181.207c-80.821-4.787-148.088-64.01-162.964-143.478 80.821 4.787 148.088 64.01 162.964 143.478z" fill="#fff"/></g><g id="XMLID_2297_"><path id="XMLID_1310_" d="m240.616 85.364-1.627 1.356c-29.798-.359-50.64 23.245-46.552 52.719l-1.391 1.576c-30.955-25.602-53.125-61.664-60.917-103.286 42.445 2.514 81.145 20.047 110.487 47.635z" fill="#ff9171"/></g></g><g id="XMLID_2289_"><g id="XMLID_2293_"><path id="XMLID_24_" d="m278.974 218.191c-83.514 11.242-167.612-23.882-203.741-85.094 83.514-11.242 167.612 23.882 203.741 85.094z" fill="#fff"/></g><g id="XMLID_2292_"><path id="XMLID_1293_" d="m200.254 150.817-1.297 1.396c-30.419 5.277-45.395 28.176-33.451 51.147l-1 1.529c-38.265-14.834-70.351-39.731-89.274-71.791 43.859-5.905 87.874.985 125.022 17.719z" fill="#ff9171"/></g></g><g id="XMLID_2284_"><g id="XMLID_2288_"><path id="XMLID_23_" d="m252.013 241.596c-63.536 34.869-148.347 30.195-205.47-11.324 63.535-34.869 148.347-30.195 205.47 11.324z" fill="#fff"/></g><g id="XMLID_2287_"><path id="XMLID_1221_" d="m157.152 207.669-.439 1.588c-22.612 13.714-24.639 37.856-4.527 53.925l-.135 1.612c-38.075-1.143-75.589-12.775-105.508-34.521 33.366-18.313 72.599-25.712 110.609-22.604z" fill="#ff9171"/></g></g><g id="XMLID_1013_"><g id="XMLID_1078_"><path id="XMLID_22_" d="m232.054 278.907c-48.661 47.917-125.882 62.149-187.082 34.481 48.661-47.917 125.883-62.149 187.082-34.481z" fill="#fff"/></g><g id="XMLID_1067_"><path id="XMLID_1211_" d="m138.811 266.962-.014 1.639c-17.006 18.319-13.043 42.208 8.851 53.357l.265 1.595c-34.439 7.317-70.886 4.326-102.94-10.165 25.554-25.164 58.987-41.031 93.838-46.426z" fill="#ff9171"/></g></g><g id="XMLID_2279_"><g id="XMLID_2283_"><path id="XMLID_21_" d="m233.779 306.459c-19.343 65.291-79.03 108.557-144.602 104.817 19.343-65.291 79.03-108.556 144.602-104.817z" fill="#fff"/></g><g id="XMLID_2282_"><path id="XMLID_1152_" d="m148.044 330.259.756 1.605c-6.022 24.354 8.589 46.172 32.634 48.731l.975 1.456c-26.164 20.241-58.889 31.183-93.233 29.225 10.159-34.288 31.448-62.496 58.868-81.017z" fill="#ff9171"/></g></g><g id="XMLID_1079_"><g id="XMLID_1084_"><path id="XMLID_20_" d="m248.767 317.053c17.272 72.868-9.335 148.629-64.461 183.546-17.272-72.868 9.336-148.63 64.461-183.546z" fill="#fff"/></g><g id="XMLID_1083_"><path id="XMLID_885_" d="m191.181 389.741 1.425 1.069c7.411 26.48 30.293 38.475 51.108 26.791l1.527.801c-11.019 34.413-32.062 63.909-60.934 82.196-9.071-38.266-6.034-77.328 6.874-110.857z" fill="#ff9171"/></g></g><g id="XMLID_1087_"><g id="XMLID_1094_"><path id="XMLID_19_" d="m281.889 315.236c40.371 57.043 40.734 136.732.88 186.765-40.371-57.043-40.735-136.732-.88-186.765z" fill="#fff"/></g><g id="XMLID_1092_"><path id="XMLID_860_" d="m252.304 398.925 1.686.418c15.73 20.324 41.086 22.539 56.633 4.949l1.693.148c1.161 33.805-8.673 71.356-29.547 97.562-21.201-29.958-31.362-69.363-30.465-103.077z" fill="#ff9171"/></g></g><g id="XMLID_2312_"><circle id="XMLID_851_" cx="262.932" cy="281.355" fill="#cbe558" r="38.817"/></g><g id="XMLID_1354_"><path id="XMLID_1357_" d="m474.811 331.167-35.444-74.153v-5.508c0-31.476-13.421-60.94-36.965-81.553.396-1.567.666-3.176.803-4.813.733-8.742-2.402-17.316-8.604-23.525l-12.326-12.339c-9.666-9.678-24.123-12.089-36.182-6.994-14.281-64.682-67.768-114.003-134.699-122.207-3.053-.377-6.112.679-8.289 2.855-2.176 2.177-3.229 5.235-2.854 8.29 1.715 13.96 5.233 27.331 10.303 39.886-24.413-13.592-51.788-21.698-79.834-23.359-3.06-.178-6.058 1.062-8.093 3.37-2.035 2.31-2.894 5.427-2.327 8.452 6.102 32.593 21.028 63.13 42.738 88.061-28.884-6.923-59.175-8.478-89.139-4.443-3.322.446-6.198 2.528-7.662 5.544-1.464 3.015-1.319 6.563.385 9.449 13.872 23.504 34.565 43.632 60.61 59.167-29.836 1.803-59.339 9.8-85.5 24.158-3.002 1.647-4.952 4.717-5.168 8.134-.217 3.418 1.33 6.709 4.101 8.722 17.733 12.889 38.037 22.381 59.588 28.413-23.505 8.795-44.709 22.171-62.296 39.489-2.349 2.313-3.407 5.636-2.828 8.882.579 3.245 2.721 5.997 5.726 7.355 21.539 9.737 45.19 14.694 69.576 14.694 4.468 0 8.962-.172 13.471-.506-20.29 18.809-35.892 43.327-44.311 71.746-.868 2.93-.35 6.095 1.408 8.594 1.757 2.498 4.561 4.057 7.61 4.23 2.836.162 5.652.242 8.465.242 29.264 0 57.149-8.675 80.921-24.053-10.243 32.738-11.941 69.495-3.417 105.457.746 3.145 2.966 5.735 5.959 6.955 1.214.494 2.495.738 3.771.738 1.87 0 3.729-.524 5.352-1.552 24.594-15.578 43.885-38.747 56.645-66.083 5.043 23.322 14.678 45.561 28.305 64.815 1.816 2.566 4.734 4.129 7.878 4.219.096.003.19.004.285.004 3.039 0 5.921-1.384 7.821-3.77 20.691-25.977 31.993-60.437 31.822-97.031-.154-33.028-9.653-65.865-26.905-93.527 9.96-8.944 16.24-21.91 16.24-36.319 0-5.059-.774-9.939-2.209-14.532 2.727-3.708 5.6-7.44 8.579-11.138 3.464-4.302 2.784-10.598-1.518-14.062-4.299-3.463-10.596-2.785-14.061 1.517-1.327 1.649-2.628 3.305-3.914 4.963-6.362-6.825-14.649-11.829-23.99-14.137 18.954-32.725 46.044-65.376 75.873-91.175 5.116-4.422 12.854-4.151 17.615.618l12.326 12.339c2.065 2.068 3.068 4.81 2.824 7.72-.243 2.9-1.682 5.426-4.05 7.112-3.609 2.568-7.266 5.284-10.87 8.07-4.369 3.379-5.172 9.659-1.794 14.028 3.38 4.369 9.66 5.171 14.028 1.794 3.396-2.626 6.839-5.183 10.234-7.6.09-.064.175-.134.264-.199 18.042 16.712 28.279 40.004 28.279 64.832v7.775c0 1.492.334 2.966.978 4.313l36.422 76.198c.501 1.048.198 1.914-.144 2.457-.342.542-.993 1.188-2.154 1.188h-21.644c-5.522 0-10 4.478-10 10 0 3.791 2.11 7.089 5.22 8.785v24.606h-26.097c-5.522 0-10 4.478-10 10s4.478 10 10 10h18.804c-1.567 4.289-2.392 8.832-2.392 13.464v31.019c0 9.231-7.511 16.742-16.742 16.742-16.764 0-33.438-4.179-48.221-12.083-4.872-2.604-10.93-.767-13.534 4.103-2.604 4.871-.768 10.93 4.103 13.534 3.385 1.81 6.854 3.454 10.39 4.933l-8.093 19.654c-2.103 5.106.333 10.951 5.439 13.055 1.246.513 2.535.756 3.804.756 3.932 0 7.661-2.334 9.251-6.195l8.679-21.076c9.219 2.185 18.687 3.32 28.183 3.32 20.26 0 36.742-16.482 36.742-36.742v-31.019c0-3.787 1.103-7.459 3.188-10.619 4.251-6.44 6.497-13.922 6.497-21.636v-24.6h6.424c7.789 0 14.92-3.934 19.073-10.523 4.153-6.587 4.627-14.717 1.268-21.745zm-199.198-135.477c-1.974-2.496-4.033-4.94-6.167-7.335 3.422.641 6.865 1.178 10.322 1.625-1.408 1.896-2.789 3.801-4.155 5.71zm-113.147 163.608c-4.604-6.569-6.092-14.941-4.255-23.7 18.371-11.344 39.412-18.147 61.536-19.215-8.643 21.502-22.148 39.913-38.862 54.057-7.708-1.213-14.206-5.129-18.419-11.142zm-23.929-62.752c-1.215-6.835 1.32-14.132 7.125-20.619 22.553-2.719 45.634-.745 67.388 6.336-18.686 14.341-40.153 24.408-62.455 29.917-6.682-3.852-10.943-9.35-12.058-15.634zm34.898-117.69c4.137-8.355 13.999-14.456 27.07-16.76 24.445 11.712 45.511 27.927 60.727 47.693-30.499 1.52-60.623-3.159-87.697-12.817-2.795-6.346-2.844-12.574-.1-18.116zm-25.066 57.642c.448-6.947 5.143-13.502 13.221-18.494 24.753 2.707 48.793 10.165 69.953 22.259-23.332 9.707-48.702 14.481-73.897 14.454-6.396-5.398-9.689-11.834-9.277-18.219zm93.569 97.833c3.913 25.884 2.164 51.688-4.454 75.251-6.018 2.971-12.184 3.297-17.914.92-7.829-3.247-14.063-11.203-17.175-21.862 9.031-21.437 22.429-40.212 39.543-54.309zm39.568-1.114c11.656 20.375 18.409 43.137 20.274 65.871-4.871 4.831-10.794 7.265-17.261 7.062-7.86-.256-15.733-4.578-21.785-11.896 1.557-21.939 7.796-43.042 18.772-61.037zm-79.253-195.943c-1.328-11.006 1.573-21.188 8.231-28.742 6.68-7.577 16.49-11.773 27.597-11.806 19.735 19.938 34.495 44.938 42.169 73.163-29.015-4.065-55.71-15.558-77.997-32.615zm64.519-41.121c-.323-8.52 2.469-16.167 7.947-21.646 5.494-5.495 13.173-8.293 21.728-7.967 14.489 16.777 24.977 37.117 30.024 59.604-22.524-5.039-42.896-15.516-59.699-29.991zm11.716-46.943c-6.732 2.309-12.819 6.061-17.913 11.156-5.084 5.085-8.829 11.158-11.135 17.874-12.928-16.052-22.316-35.092-27.006-55.987 20.921 4.68 39.983 14.051 56.054 26.957zm-59.863 30.71c-8.952 3.063-16.862 8.261-23.144 15.386-6.267 7.109-10.425 15.585-12.34 24.822-18.726-19.588-32.757-43.824-40.167-71.081 28.008 3.924 53.844 14.783 75.651 30.873zm-125.658 61.507c27.544-1.616 54.928 1.952 80.072 9.864-7.756 4.823-13.805 11.171-17.528 18.69-2.772 5.599-4.126 11.569-4.105 17.646-23.584-11.624-43.816-27.339-58.439-46.2zm41.573 75.511c-3.582 5.645-5.715 11.846-6.129 18.272-.396 6.131.72 12.122 3.202 17.754-22.973-3.097-45.136-10.277-64.728-21.452 21.332-9.055 44.462-13.88 67.655-14.574zm-70.664 93.027c16.692-13.342 35.938-23.066 56.248-28.877-1.912 6.241-2.392 12.687-1.279 18.955 1.059 5.958 3.433 11.466 6.947 16.345-21.053 1.969-42.211-.091-61.916-6.423zm74.185 40.885c1.143 7.175 3.831 13.939 8.025 19.925 3.968 5.663 9.035 10.251 14.907 13.607-17.47 10.001-37.165 15.975-57.784 16.97 7.934-19.729 19.981-36.868 34.852-50.502zm53.077 132.471c-3.518-23.308-2.439-46.593 2.667-68.247 4.987 6.226 11.135 11.011 18.102 13.901 5.007 2.077 10.223 3.108 15.469 3.108.676 0 1.354-.034 2.031-.068-9.008 20.201-21.962 37.878-38.269 51.306zm92.014.699c-11.301-19.755-17.991-41.753-20.089-63.794 6.519 3.618 14.318 5.677 21.518 5.912.477.016-.474.023 0 .023 5.809 0 12.133-1.178 17.359-3.415-1.528 22.025-7.772 43.214-18.788 61.274zm8.597-202.666c0 15.89-12.927 28.817-28.816 28.817s-28.816-12.928-28.816-28.817 12.927-28.816 28.816-28.816 28.816 12.927 28.816 28.816zm7.952-116.061c-2.927-10.833-6.835-21.368-11.646-31.47 9.74 4.696 20.048 8.427 30.802 11.07-6.596 6.545-13.003 13.368-19.156 20.4z"/><path id="XMLID_1388_" d="m386.257 283.659c5.522 0 10-4.478 10-10s-4.478-10-10-10h-8.667c-5.522 0-10 4.478-10 10s4.478 10 10 10z"/><path id="XMLID_1390_" d="m347.631 223.251c1.86-1.86 2.93-4.44 2.93-7.07s-1.069-5.2-2.93-7.07c-1.86-1.859-4.44-2.93-7.07-2.93-2.64 0-5.21 1.07-7.08 2.93-1.85 1.86-2.92 4.44-2.92 7.07 0 2.64 1.07 5.21 2.92 7.07 1.87 1.87 4.45 2.93 7.08 2.93s5.21-1.06 7.07-2.93z"/></g></g></svg>