<svg id="Capa_1" enable-background="new 0 0 512.001 512.001" height="512" viewBox="0 0 512.001 512.001" width="512" xmlns="http://www.w3.org/2000/svg"><g id="XMLID_587_"><path id="XMLID_1454_" d="m304.904 126.515 47.664-65.876c8.38-11.582 2.664-27.968-11.101-31.825l-49.497-13.869c-23.527-6.592-48.412-6.592-71.939 0l-49.497 13.869c-13.765 3.857-19.481 20.244-11.101 31.825l47.664 65.876z" fill="#ffda8f"/><path id="XMLID_1452_" d="m207.823 153.253-51.895 35.221c-34.296 23.277-54.832 62.033-54.832 103.482v133.544c0 11.827-5.294 23.226-14.824 30.231-6.248 4.594-10.336 11.954-10.454 20.276-.204 14.295 11.892 25.992 26.188 25.992h307.988c14.296 0 26.392-11.698 26.188-25.992-.118-8.322-4.206-15.683-10.454-20.276-9.529-7.006-14.824-18.404-14.824-30.231v-133.543c0-41.449-20.536-80.206-54.832-103.483l-51.895-35.221z" fill="#ffcd69"/><path id="XMLID_1485_" d="m297.104 161.727h-82.207c-12.369 0-22.396-10.027-22.396-22.396 0-12.369 10.027-22.396 22.396-22.396h82.207c12.369 0 22.396 10.027 22.396 22.396 0 12.369-10.027 22.396-22.396 22.396z" fill="#c68a65"/><g id="XMLID_151_"><path id="XMLID_381_" d="m431.652 447.675c-6.729-4.947-10.747-13.236-10.747-22.174v-133.544c0-44.813-22.137-86.591-59.216-111.757l-36.492-24.766c2.732-4.747 4.303-10.243 4.303-16.102 0-7.579-2.623-14.552-7-20.077l38.169-52.753c5.851-8.086 7.382-18.54 4.094-27.964-3.287-9.424-10.987-16.659-20.599-19.352l-49.497-13.87c-25.297-7.087-52.039-7.087-77.336 0l-49.497 13.869c-9.611 2.693-17.312 9.927-20.599 19.352-3.288 9.424-1.757 19.878 4.094 27.964l38.169 52.753c-4.376 5.524-7 12.498-7 20.077 0 5.859 1.571 11.354 4.303 16.102l-36.489 24.767c-37.079 25.166-59.216 66.944-59.216 111.757v133.544c0 8.938-4.018 17.228-10.746 22.174-9.073 6.67-14.37 16.945-14.531 28.191-.134 9.433 3.508 18.396 10.255 25.24 6.826 6.924 16.278 10.895 25.933 10.895h109.375c5.522 0 10-4.477 10-10s-4.478-10-10-10h-109.376c-4.337 0-8.598-1.799-11.69-4.937-2.959-3.001-4.557-6.877-4.499-10.913.07-4.928 2.396-9.434 6.38-12.362 11.834-8.701 18.899-23.014 18.899-38.289v-133.544c0-38.177 18.859-73.769 50.448-95.208l40.676-27.607c3.896 1.663 8.18 2.586 12.677 2.586h82.207c4.497 0 8.781-.923 12.677-2.586l40.675 27.607c31.589 21.439 50.448 57.031 50.448 95.208v133.544c0 15.274 7.065 29.588 18.9 38.289 3.983 2.928 6.309 7.433 6.379 12.36.058 4.037-1.54 7.913-4.499 10.914-3.093 3.137-7.354 4.937-11.69 4.937h-108.613c-5.522 0-10 4.477-10 10s4.478 10 10 10h108.613c9.654 0 19.106-3.971 25.933-10.895 6.747-6.844 10.389-15.807 10.255-25.241-.161-11.244-5.458-21.519-14.53-28.189zm-265.531-402.551c1.151-3.302 3.744-5.737 7.111-6.681l31.876-8.931 11.785 39.847c1.287 4.35 5.27 7.166 9.586 7.166.938 0 1.894-.133 2.84-.413 5.296-1.566 8.319-7.129 6.754-12.426l-11.696-39.543c20.73-5.501 42.518-5.5 63.247 0l-11.696 39.544c-1.565 5.296 1.458 10.859 6.754 12.426.946.28 1.901.413 2.84.413 4.316 0 8.299-2.817 9.586-7.166l11.785-39.848 31.876 8.932c3.367.944 5.96 3.379 7.111 6.681s.637 6.82-1.413 9.653l-38.614 53.368c-2.785-.783-5.718-1.21-8.75-1.21h-82.207c-3.032 0-5.964.428-8.75 1.21l-38.614-53.368c-2.048-2.834-2.563-6.352-1.411-9.654zm48.776 106.603c-6.835 0-12.396-5.561-12.396-12.396s5.562-12.396 12.396-12.396h82.207c6.835 0 12.396 5.561 12.396 12.396s-5.562 12.396-12.396 12.396z"/><path id="XMLID_389_" d="m256.38 492.001c-2.63 0-5.21 1.07-7.07 2.93-1.859 1.86-2.93 4.44-2.93 7.07s1.07 5.21 2.93 7.07 4.44 2.93 7.07 2.93 5.21-1.07 7.07-2.93c1.859-1.86 2.93-4.44 2.93-7.07s-1.07-5.21-2.93-7.07-4.44-2.93-7.07-2.93z"/></g><g id="XMLID_47_"><path id="XMLID_160_" d="m274.027 317.381c-2.639-.933-5.333-1.906-8.026-2.916v-47.788c7.084 1.889 11.21 5.426 11.503 5.683 1.778 1.623 4.115 2.592 6.711 2.592 5.523 0 10-4.477 10-10 0-2.887-1.453-5.687-3.41-7.512-2.071-1.769-11.146-8.915-24.804-11.193v-9.912c0-5.523-4.478-10-10-10s-10 4.477-10 10v10.327c-1.792.364-3.625.823-5.498 1.387-14.366 4.328-25.102 16.625-28.017 32.09-2.657 14.1 1.858 27.695 11.785 35.48 5.447 4.272 12.265 8.174 21.729 12.324v60.077c-8.3-.486-13.772-2.312-22.961-8.322-4.625-3.024-10.821-1.727-13.843 2.895-3.023 4.622-1.728 10.819 2.894 13.843 13.202 8.636 22.115 11.038 33.91 11.59v10.893c0 5.523 4.478 10 10 10s10-4.477 10-10v-11.917c22.016-4.72 34.888-23.047 37.77-40.186 3.752-22.318-7.923-41.722-29.743-49.435zm-28.027-11.599c-3.557-1.875-6.761-3.84-9.387-5.899-4.028-3.159-5.743-9.305-4.474-16.039 1.183-6.28 5.45-13.879 13.86-16.55v38.488zm38.046 57.718c-1.512 8.996-7.644 18.539-18.046 22.622v-50.372c.457.163.895.323 1.36.487 18.629 6.585 17.482 22.532 16.686 27.263z"/><path id="XMLID_162_" d="m290.804 257.44c.228.195-.056-.052 0 0z"/></g></g></svg>