<svg id="Capa_1" enable-background="new 0 0 512 512" height="512" viewBox="0 0 512 512" width="512" xmlns="http://www.w3.org/2000/svg"><g id="XMLID_1234_"><path id="XMLID_1107_" d="m10 30h44v452h-44z" fill="#c68a65"/><path id="XMLID_52_" d="m234 434h-180v-308h67.09c24.702 0 48.341-10.049 65.482-27.837 12.414-12.884 29.536-20.163 47.428-20.163z" fill="#d1a184"/><g id="XMLID_3_"><path id="XMLID_50_" d="m98 390h92v-238.976c-20.706 12.268-44.577 18.976-68.91 18.976h-23.09z" fill="#c68a65"/></g><path id="XMLID_1131_" d="m458 30h44v452h-44z" fill="#c68a65" transform="matrix(-1 0 0 -1 960 512)"/><path id="XMLID_1130_" d="m278 434h180v-308h-67.09c-24.702 0-48.341-10.049-65.482-27.837-12.414-12.884-29.536-20.163-47.428-20.163z" fill="#d1a184"/><g id="XMLID_1127_"><path id="XMLID_1128_" d="m414 170h-23.09c-24.333 0-48.204-6.708-68.91-18.976v238.976h92z" fill="#c68a65"/></g><g id="XMLID_2317_"><path id="XMLID_2321_" d="m234 68c-20.496 0-40.408 8.465-54.63 23.224-15.172 15.745-36.414 24.776-58.28 24.776h-57.09v-86c0-5.523-4.477-10-10-10h-44c-5.523 0-10 4.477-10 10v452c0 5.523 4.477 10 10 10h44c5.523 0 10-4.477 10-10v-38h170c5.523 0 10-4.477 10-10v-130c0-5.523-4.477-10-10-10s-10 4.477-10 10v120h-160v-288h57.09c27.27 0 53.761-11.262 72.682-30.898 8.135-8.442 18.799-14.088 30.228-16.188v125.086c0 5.523 4.477 10 10 10s10-4.477 10-10v-136c0-5.523-4.477-10-10-10zm-190 404h-24v-432h24z"/><path id="XMLID_2326_" d="m184.903 142.42c-19.412 11.5-41.478 17.58-63.813 17.58h-23.09c-5.523 0-10 4.477-10 10v220c0 5.523 4.477 10 10 10h92c5.523 0 10-4.477 10-10v-238.976c0-3.593-1.927-6.91-5.049-8.688s-6.958-1.746-10.048.084zm-76.903 125.58h72v24h-72zm72-20h-72v-24h72zm-72 64h72v24h-72zm13.09-132c20.28 0 40.358-4.312 58.91-12.572v36.572h-72v-24zm-13.09 200v-24h72v24z"/><path id="XMLID_2339_" d="m502 20h-44c-5.523 0-10 4.477-10 10v86h-57.09c-21.866 0-43.108-9.031-58.281-24.776-14.221-14.759-34.133-23.224-54.629-23.224-5.523 0-10 4.477-10 10v356c0 5.523 4.477 10 10 10h170v38c0 5.523 4.477 10 10 10h44c5.523 0 10-4.477 10-10v-452c0-5.523-4.477-10-10-10zm-214 404v-335.086c11.429 2.1 22.093 7.745 30.228 16.187 18.921 19.637 45.413 30.899 72.682 30.899h57.09v288zm204 48h-24v-432h24z"/><path id="XMLID_2346_" d="m414 160h-23.09c-22.335 0-44.401-6.079-63.813-17.58-3.092-1.831-6.926-1.864-10.048-.085s-5.049 5.096-5.049 8.688v238.977c0 5.523 4.477 10 10 10h92c5.523 0 10-4.477 10-10v-220c0-5.523-4.477-10-10-10zm-82 108h72v24h-72zm72-20h-72v-24h72zm-72 64h72v24h-72zm58.91-132h13.09v24h-72v-36.572c18.552 8.26 38.63 12.572 58.91 12.572zm-58.91 200v-24h72v24z"/><path id="XMLID_2351_" d="m234 249c-2.63 0-5.21 1.07-7.07 2.93s-2.93 4.44-2.93 7.07 1.07 5.21 2.93 7.07 4.44 2.93 7.07 2.93 5.21-1.07 7.07-2.93 2.93-4.44 2.93-7.07-1.07-5.21-2.93-7.07-4.44-2.93-7.07-2.93z"/></g></g></svg>