<svg id="Capa_1" enable-background="new 0 0 512 512" height="512" viewBox="0 0 512 512" width="512" xmlns="http://www.w3.org/2000/svg"><g id="XMLID_1183_"><path id="XMLID_1796_" d="m473.293 366h8.707v-136.042h-452v136.042h8.705z" fill="#c68a65"/><path id="XMLID_1795_" d="m30 229.958c-13.253-41.304-20-84.419-20-127.797v-92.161h492v92.161c0 43.378-6.747 86.493-20 127.797z" fill="#fff3da"/><circle id="XMLID_1799_" cx="126" cy="406" fill="#f4e8e0" r="96"/><circle id="XMLID_493_" cx="386" cy="406" fill="#f4e8e0" r="96"/><circle id="XMLID_1798_" cx="126" cy="406" fill="#c68a65" r="22"/><circle id="XMLID_1797_" cx="386" cy="406" fill="#c68a65" r="22"/><g id="XMLID_480_"><path id="XMLID_528_" d="m512 10c0-5.523-4.478-10-10-10h-492c-5.523 0-10 4.477-10 10v92.161c0 43.938 6.736 87.433 20 129.312v134.527c0 3.604 1.913 6.754 4.773 8.514-3.101 9.951-4.773 20.527-4.773 31.486 0 58.449 47.551 106 106 106s106-47.551 106-106c0-10.416-1.517-20.483-4.33-30h56.661c-2.813 9.517-4.33 19.584-4.33 30 0 58.449 47.552 106 106 106s106-47.551 106-106c0-10.959-1.672-21.535-4.774-31.486 2.86-1.76 4.774-4.909 4.774-8.514v-134.529c13.264-41.877 20-85.371 20-129.31v-92.161zm-58.573 449.286-38.871-38.872c.717-1.415 1.332-2.889 1.835-4.414h55.009c-1.89 16.231-8.314 31.089-17.973 43.286zm-152.827-43.286h55.009c.503 1.525 1.118 2.999 1.835 4.414l-38.872 38.872c-9.659-12.197-16.082-27.055-17.972-43.286zm17.972-63.286 38.872 38.872c-.717 1.415-1.332 2.888-1.835 4.414h-55.009c1.89-16.231 8.313-31.089 17.972-43.286zm67.428 65.286c-6.617 0-12-5.383-12-12s5.383-12 12-12 12 5.383 12 12-5.383 12-12 12zm-10-42.391c-1.525.503-2.999 1.118-4.414 1.835l-38.871-38.872c12.196-9.659 27.054-16.083 43.286-17.972v55.009zm24.414 1.835c-1.415-.717-2.889-1.332-4.414-1.835v-55.009c16.231 1.889 31.089 8.313 43.285 17.972zm-28.828 57.112c1.415.717 2.889 1.332 4.414 1.835v55.009c-16.231-1.889-31.089-8.313-43.286-17.972zm24.414 1.835c1.525-.503 2.999-1.118 4.414-1.835l38.872 38.872c-12.197 9.659-27.055 16.082-43.286 17.972zm75.4-40.391h-55.009c-.503-1.525-1.118-2.999-1.835-4.414l38.871-38.872c9.659 12.197 16.083 27.055 17.973 43.286zm-260 0h-55.008c-.503-1.525-1.118-2.999-1.835-4.414l38.872-38.872c9.658 12.197 16.081 27.055 17.971 43.286zm-17.972 63.285-38.872-38.872c.717-1.415 1.332-2.888 1.835-4.414h55.009c-1.89 16.232-8.313 31.09-17.972 43.286zm-152.828-43.285h55.008c.503 1.525 1.118 2.999 1.835 4.414l-38.872 38.872c-9.658-12.197-16.081-27.055-17.971-43.286zm85.4 2c-6.617 0-12-5.383-12-12s5.383-12 12-12 12 5.383 12 12-5.383 12-12 12zm-10-42.391c-1.525.503-2.999 1.118-4.414 1.835l-38.872-38.872c12.197-9.659 27.055-16.082 43.286-17.972zm24.414 1.835c-1.415-.717-2.889-1.332-4.414-1.835v-55.009c16.231 1.889 31.089 8.313 43.285 17.972zm-81.842-24.729 38.872 38.872c-.717 1.415-1.332 2.888-1.835 4.414h-55.009c1.89-16.232 8.313-31.09 17.972-43.286zm53.014 81.841c1.415.717 2.889 1.332 4.414 1.835v55.009c-16.231-1.889-31.089-8.313-43.285-17.972zm24.414 1.835c1.525-.503 2.999-1.118 4.414-1.835l38.872 38.872c-12.197 9.659-27.055 16.082-43.286 17.972zm151.562-196.433-31.562 18.422-31.563-18.421h63.125zm90.4 0-31.562 18.422-31.562-18.421h63.124zm-180.8 0-31.562 18.422-31.563-18.421h63.125zm-157.162 21.035 30.16 17.603c3.114 1.817 6.967 1.817 10.081 0l40.159-23.439 40.16 23.439c3.114 1.817 6.967 1.817 10.081 0l40.159-23.439 40.16 23.439c3.115 1.818 6.967 1.817 10.082 0l40.159-23.439 40.159 23.439c3.114 1.817 6.966 1.818 10.082 0l40.158-23.439 40.159 23.439c1.558.909 3.3 1.363 5.041 1.363 1.742 0 3.483-.455 5.041-1.363l30.159-17.603v39.007h-432zm3.637-21.035h63.125l-31.562 18.422zm393.163 18.422-31.562-18.421h63.125zm-170.8-38.422v-62.208c0-5.523-4.478-10-10-10-5.523 0-10 4.477-10 10v62.208h-103v-199.958h103v47.75c0 5.523 4.477 10 10 10 5.522 0 10-4.477 10-10v-47.75h103v199.958zm-246-199.958h103v199.958h-85.632c-11.524-38.232-17.368-77.823-17.368-117.797zm20 300h24.107c-9.269 6.69-17.417 14.838-24.107 24.106zm179.444 36c-7.663-14.263-18.495-26.578-31.55-36h136.213c-13.055 9.422-23.887 21.737-31.55 36zm228.449-36h24.107v24.107c-6.69-9.269-14.838-17.417-24.107-24.107zm44.107-217.839c0 39.975-5.844 79.566-17.367 117.797h-85.633v-199.958h103z"/><path id="XMLID_561_" d="m263.2 105.68c-1.86-1.86-4.44-2.93-7.07-2.93s-5.21 1.07-7.07 2.93c-1.87 1.86-2.93 4.44-2.93 7.07s1.06 5.21 2.93 7.07c1.86 1.86 4.44 2.93 7.07 2.93s5.21-1.07 7.07-2.93c1.859-1.86 2.93-4.44 2.93-7.07s-1.07-5.21-2.93-7.07z"/></g></g></svg>