<svg id="Capa_1" enable-background="new 0 0 512 512" height="512" viewBox="0 0 512 512" width="512" xmlns="http://www.w3.org/2000/svg"><g id="XMLID_1214_"><g id="XMLID_1318_"><path id="XMLID_1333_" d="m245.342 179.676c-15.977 0-28.715-13.205-28.676-29.182 0-.101 0 .101 0 0 0-20.128-4.849-54.943-13.441-86.494h-62.451c-8.592 31.551-13.441 66.366-13.441 86.494.039 15.977-12.699 29.182-28.676 29.182-19.14 0-34.657 15.516-34.657 34.657v253.009c0 19.141 15.517 34.658 34.658 34.658h146.684c19.141 0 34.658-15.517 34.658-34.658v-253.009c0-19.141-15.517-34.657-34.658-34.657z" fill="#ff9171"/><path id="XMLID_1332_" d="m140.775 64c-5.354 19.66-9.253 40.526-11.433 58.333h85.317c-2.18-17.807-6.08-38.674-11.433-58.333z" fill="#dfedff"/><path id="XMLID_1331_" d="m202.333 10h-60.667c-4.971 0-9 4.029-9 9v36c0 4.971 4.029 9 9 9h60.667c4.971 0 9-4.029 9-9v-36c0-4.971-4.029-9-9-9z" fill="#c68a65"/><path id="XMLID_1330_" d="m202.333 10h-60.667c-4.971 0-9 4.029-9 9v36c0 4.971 4.029 9 9 9h60.667c4.971 0 9-4.029 9-9v-36c0-4.971-4.029-9-9-9z" fill="#c68a65"/><g id="XMLID_1328_"><path id="XMLID_1329_" d="m64 224h216v224h-216z" fill="#ffcd69"/></g><path id="XMLID_1321_" d="m415.229 502h-131.084l-32.771-170h196.626z" fill="#e2e9ee"/><path id="XMLID_1320_" d="m436.823 376h-172.223l5.102 51.078c2.883 14.957 15.974 25.765 31.206 25.765h97.558c15.232 0 28.323-10.808 31.206-25.765z" fill="#ff9171"/><path id="XMLID_1315_" d="m384.248 415.526-16.901 29.274c-2.602 4.507-8.366 6.052-12.873 3.449l-29.273-16.901c-4.507-2.602-6.052-8.366-3.449-12.873l16.901-29.273c2.602-4.507 8.366-6.052 12.873-3.449l29.273 16.901c4.507 2.601 6.052 8.364 3.449 12.872z" fill="#fff"/></g><g id="XMLID_272_"><path id="XMLID_273_" d="m126.724 286.19c-5.418 1.072-8.941 6.333-7.87 11.75l15.587 78.799c.095.478.224.949.387 1.408 1.672 4.706 6.136 7.853 11.124 7.853h.08c5.021-.034 9.48-3.25 11.097-8.004.03-.087.058-.175.085-.263l14.786-47.767 14.719 47.777c.042.135.086.27.134.404 1.672 4.706 6.136 7.853 11.124 7.853h.08c5.021-.034 9.48-3.25 11.097-8.004.141-.415.255-.838.34-1.268l15.649-78.629c1.078-5.417-2.439-10.682-7.855-11.76-5.418-1.079-10.682 2.44-11.76 7.855l-9.271 46.58-14.701-47.719c-1.625-5.278-7.22-8.239-12.501-6.612-3.584 1.104-6.094 4.041-6.83 7.463l-14.509 46.875-9.242-46.722c-1.072-5.416-6.328-8.937-11.75-7.869z"/><path id="XMLID_295_" d="m455.711 325.633c-1.9-2.3-4.728-3.633-7.711-3.633h-158v-107.667c0-24.624-20.033-44.657-44.658-44.657-4.96 0-9.622-1.934-13.126-5.447-3.591-3.6-5.563-8.567-5.55-13.735 0-20.975-4.643-52.845-11.753-81.294 3.927-3.483 6.42-8.55 6.42-14.2v-36c0-10.477-8.523-19-19-19h-60.667c-10.477 0-19 8.523-19 19v36c0 5.65 2.493 10.717 6.42 14.2-7.11 28.451-11.753 60.333-11.753 81.306.013 5.144-1.959 10.123-5.55 13.723-3.504 3.513-8.166 5.447-13.126 5.447-24.624 0-44.657 20.033-44.657 44.657v253.009c0 24.625 20.033 44.658 44.658 44.658h146.685c10.773 0 20.766-3.806 28.563-10.282l.419 2.176c.907 4.706 5.026 8.107 9.819 8.107h131.085c4.793 0 8.912-3.401 9.819-8.107l32.771-170c.565-2.931-.208-5.96-2.108-8.261zm-35.858 99.553c-1.973 10.231-10.967 17.658-21.387 17.658h-18.442l12.885-22.318c2.595-4.493 3.283-9.727 1.941-14.739-1.344-5.012-4.558-9.201-9.051-11.794l-13.844-7.993h55.451l-7.553 39.182zm-140.332 0c0-.001-.001-.002-.001-.003l-7.553-39.183h56.986l-15.862 27.474c-2.595 4.493-3.284 9.728-1.941 14.74 1.344 5.012 4.558 9.201 9.051 11.794l4.912 2.836h-24.205c-10.42-.001-19.414-7.427-21.387-17.658zm79.455 14.114-28.276-16.325 16.324-28.275 28.275 16.325zm72.286-73.3h-163.15l-4.627-24h172.403zm-228.082-253.667h-62.36c1.813-11.927 4.353-25.068 7.677-38.333h47.007c3.323 13.266 5.864 26.407 7.676 38.333zm-60.514-92.333h58.667v34h-58.667zm-44.008 169.676c10.312 0 20.001-4.021 27.284-11.321 7.372-7.389 11.417-17.366 11.392-27.885 0-4.831.326-11.09.993-18.136h67.347c.667 7.045.993 13.317.993 18.148-.026 10.495 4.02 20.483 11.391 27.873 7.283 7.301 16.973 11.322 27.285 11.322 13.485 0 24.469 10.882 24.649 24.324h-52.992c-5.523 0-10 4.477-10 10s4.477 10 10 10h53v88h-18.626c-2.984 0-5.812 1.333-7.711 3.633-1.899 2.301-2.672 5.33-2.108 8.26l20.068 104.106h-187.623v-204h53c5.523 0 10-4.477 10-10s-4.477-10-10-10h-52.992c.18-13.443 11.165-24.324 24.65-24.324zm146.684 302.324h-146.684c-13.597 0-24.658-11.062-24.658-24.658v-9.342h191.479l3.289 17.062c-3.294 10.065-12.656 16.938-23.426 16.938zm47.059 0-6.134-31.818c4.581 1.721 9.52 2.661 14.641 2.661h97.558c5.121 0 10.059-.941 14.641-2.661l-6.134 31.818z"/><path id="XMLID_304_" d="m172 234c2.63 0 5.21-1.07 7.07-2.93s2.93-4.44 2.93-7.07-1.07-5.21-2.93-7.07-4.44-2.93-7.07-2.93-5.21 1.07-7.07 2.93-2.93 4.44-2.93 7.07 1.07 5.21 2.93 7.07 4.44 2.93 7.07 2.93z"/></g></g></svg>